# xmcd
#
# Track frame offsets: 
#        150
#        11874
#        29382
#        46631
#        68185
#        81655
#        98276
#        114670
#        130262
#        141348
#        161239
#        182195
#
# Disc length: 2714 seconds
#
# Revision: 1
# Processed by: cddbd v1.5.2PL0 Copyright (c) Steve Scherf et al.
# Submitted via: ExactAudioCopy v0.99pb5
#
DISCID=a50a980c
DTITLE=The 88 - Over And Over
DYEAR=2005
DGENRE=Pop Rock
TTITLE0=Hide Another Mistake
TTITLE1=All 'Cause Of You
TTITLE2=Nobody Cares
TTITLE3=Bowls
TTITLE4=Head Cut Off
TTITLE5=Battle Scar
TTITLE6=Coming Home
TTITLE7=You Belong To Me
TTITLE8=Haunt You
TTITLE9=Jesus Is Good
TTITLE10=Everybody Loves Me
TTITLE11=Not Enough
EXTD=
EXTT0=
EXTT1=
EXTT2=
EXTT3=
EXTT4=
EXTT5=
EXTT6=
EXTT7=
EXTT8=
EXTT9=
EXTT10=
EXTT11=
PLAYORDER=
